<svg xmlns="http://www.w3.org/2000/svg" version="1.1" xmlns:xlink="http://www.w3.org/1999/xlink" xmlns:svgjs="http://svgjs.dev/svgjs" viewBox="0 0 10.254115851706501 3.1883289012573837"><g transform="matrix(1,0,0,1,0.4601114845125167,0.5128873732139192)"><g><path d=" M 0.10693359375 0.010986328125 L 0.570556640625 0.010986328125 L 0.570556640625 0.160400390625 L 0.296630859375 0.160400390625 L 0.296630859375 0.53466796875 L 0.50830078125 0.53466796875 L 0.50830078125 0.68408203125 L 0.296630859375 0.68408203125 L 0.296630859375 1.112548828125 L 0.577880859375 1.112548828125 L 0.577880859375 1.261962890625 L 0.10693359375 1.261962890625 L 0.10693359375 0.010986328125 M 0.72216796875 0.010986328125 L 0.9697265625 0.010986328125 L 1.08984375 0.4951171875 Q 1.10888671875 0.57568359375 1.119873046875 0.6485595703125 Q 1.130859375 0.721435546875 1.14111328125 0.785888671875 L 1.14697265625 0.785888671875 Q 1.1572265625 0.721435546875 1.168212890625 0.6485595703125 Q 1.17919921875 0.57568359375 1.1982421875 0.4951171875 L 1.322021484375 0.010986328125 L 1.564453125 0.010986328125 L 1.564453125 1.261962890625 L 1.38720703125 1.261962890625 L 1.38720703125 0.84814453125 Q 1.38720703125 0.7529296875 1.3890380859375 0.6650390625 Q 1.390869140625 0.5771484375 1.393798828125 0.5035400390625 Q 1.396728515625 0.429931640625 1.400390625 0.37353515625 Q 1.404052734375 0.317138671875 1.406982421875 0.2841796875 L 1.39306640625 0.2841796875 L 1.2041015625 1.100830078125 L 1.083984375 1.100830078125 L 0.8935546875 0.2841796875 L 0.879638671875 0.2841796875 Q 0.882568359375 0.317138671875 0.88623046875 0.37353515625 Q 0.889892578125 0.429931640625 0.892822265625 0.5035400390625 Q 0.895751953125 0.5771484375 0.8975830078125 0.6650390625 Q 0.8994140625 0.7529296875 0.8994140625 0.84814453125 L 0.8994140625 1.261962890625 L 0.72216796875 1.261962890625 L 0.72216796875 0.010986328125 M 1.78564453125 0.010986328125 L 2.249267578125 0.010986328125 L 2.249267578125 0.160400390625 L 1.975341796875 0.160400390625 L 1.975341796875 0.53466796875 L 2.18701171875 0.53466796875 L 2.18701171875 0.68408203125 L 1.975341796875 0.68408203125 L 1.975341796875 1.112548828125 L 2.256591796875 1.112548828125 L 2.256591796875 1.261962890625 L 1.78564453125 1.261962890625 L 1.78564453125 0.010986328125 M 2.40087890625 0.010986328125 L 2.606689453125 0.010986328125 Q 2.641845703125 0.010986328125 2.6839599609375 0.013916015625 Q 2.72607421875 0.016845703125 2.7681884765625 0.0281982421875 Q 2.810302734375 0.03955078125 2.8494873046875 0.062255859375 Q 2.888671875 0.0849609375 2.9190673828125 0.12451171875 Q 2.949462890625 0.1640625 2.9677734375 0.2237548828125 Q 2.986083984375 0.283447265625 2.986083984375 0.368408203125 L 2.986083984375 0.39990234375 Q 2.986083984375 0.542724609375 2.945068359375 0.6324462890625 Q 2.904052734375 0.72216796875 2.82421875 0.76171875 L 3.02490234375 1.261962890625 L 2.82421875 1.261962890625 L 2.657958984375 0.7939453125 L 2.5869140625 0.7939453125 L 2.5869140625 1.261962890625 L 2.40087890625 1.261962890625 L 2.40087890625 0.010986328125 M 2.615478515625 0.656982421875 Q 2.665283203125 0.656982421875 2.69970703125 0.64599609375 Q 2.734130859375 0.635009765625 2.75537109375 0.6090087890625 Q 2.776611328125 0.5830078125 2.7861328125 0.5401611328125 Q 2.795654296875 0.497314453125 2.795654296875 0.434326171875 L 2.795654296875 0.33544921875 Q 2.795654296875 0.287109375 2.786865234375 0.251953125 Q 2.778076171875 0.216796875 2.7572021484375 0.194091796875 Q 2.736328125 0.17138671875 2.701904296875 0.160400390625 Q 2.66748046875 0.1494140625 2.615478515625 0.1494140625 L 2.5869140625 0.1494140625 L 2.5869140625 0.656982421875 L 2.615478515625 0.656982421875 M 3.428466796875 1.273681640625 Q 3.406494140625 1.273681640625 3.377197265625 1.2689208984375 Q 3.347900390625 1.26416015625 3.3167724609375 1.248779296875 Q 3.28564453125 1.2333984375 3.255615234375 1.2052001953125 Q 3.2255859375 1.177001953125 3.2017822265625 1.1304931640625 Q 3.177978515625 1.083984375 3.163330078125 1.0162353515625 Q 3.148681640625 0.948486328125 3.148681640625 0.854736328125 L 3.148681640625 0.41162109375 Q 3.148681640625 0.317138671875 3.1640625 0.2501220703125 Q 3.179443359375 0.18310546875 3.205078125 0.1373291015625 Q 3.230712890625 0.091552734375 3.2640380859375 0.064453125 Q 3.29736328125 0.037353515625 3.333251953125 0.0230712890625 Q 3.369140625 0.0087890625 3.404296875 0.00439453125 Q 3.439453125 0 3.469482421875 0 Q 3.545654296875 0 3.5980224609375 0.0208740234375 Q 3.650390625 0.041748046875 3.6829833984375 0.0780029296875 Q 3.715576171875 0.1142578125 3.7298583984375 0.16259765625 Q 3.744140625 0.2109375 3.744140625 0.26513671875 Q 3.744140625 0.305419921875 3.7393798828125 0.3394775390625 Q 3.734619140625 0.37353515625 3.7265625 0.41455078125 L 3.574951171875 0.41455078125 L 3.574951171875 0.355224609375 Q 3.574951171875 0.1494140625 3.46435546875 0.1494140625 Q 3.434326171875 0.1494140625 3.412353515625 0.15966796875 Q 3.390380859375 0.169921875 3.375732421875 0.1944580078125 Q 3.361083984375 0.218994140625 3.3541259765625 0.25927734375 Q 3.34716796875 0.299560546875 3.34716796875 0.359619140625 L 3.34716796875 0.926513671875 Q 3.34716796875 0.985107421875 3.3541259765625 1.02392578125 Q 3.361083984375 1.062744140625 3.3753662109375 1.086181640625 Q 3.3896484375 1.109619140625 3.4112548828125 1.1195068359375 Q 3.432861328125 1.12939453125 3.462890625 1.12939453125 Q 3.494384765625 1.12939453125 3.51708984375 1.1129150390625 Q 3.539794921875 1.096435546875 3.554443359375 1.06787109375 Q 3.569091796875 1.039306640625 3.5760498046875 1.00048828125 Q 3.5830078125 0.961669921875 3.5830078125 0.916259765625 L 3.5830078125 0.7529296875 L 3.485595703125 0.7529296875 L 3.485595703125 0.62841796875 L 3.767578125 0.62841796875 L 3.767578125 1.261962890625 L 3.6416015625 1.261962890625 L 3.62109375 1.143310546875 Q 3.585205078125 1.212890625 3.5386962890625 1.2432861328125 Q 3.4921875 1.273681640625 3.428466796875 1.273681640625 M 3.949951171875 0.010986328125 L 4.41357421875 0.010986328125 L 4.41357421875 0.160400390625 L 4.1396484375 0.160400390625 L 4.1396484375 0.53466796875 L 4.351318359375 0.53466796875 L 4.351318359375 0.68408203125 L 4.1396484375 0.68408203125 L 4.1396484375 1.112548828125 L 4.4208984375 1.112548828125 L 4.4208984375 1.261962890625 L 3.949951171875 1.261962890625 L 3.949951171875 0.010986328125 M 4.565185546875 0.010986328125 L 4.718994140625 0.010986328125 L 5.022216796875 0.84814453125 L 5.026611328125 0.84814453125 Q 5.0244140625 0.81884765625 5.020751953125 0.782958984375 Q 5.01708984375 0.7470703125 5.01416015625 0.7012939453125 Q 5.01123046875 0.655517578125 5.009033203125 0.59765625 Q 5.0068359375 0.539794921875 5.0068359375 0.46728515625 L 5.0068359375 0.010986328125 L 5.1767578125 0.010986328125 L 5.1767578125 1.261962890625 L 5.021484375 1.261962890625 L 4.7197265625 0.44677734375 L 4.7138671875 0.44677734375 Q 4.716064453125 0.479736328125 4.7197265625 0.5181884765625 Q 4.723388671875 0.556640625 4.726318359375 0.608642578125 Q 4.729248046875 0.66064453125 4.7314453125 0.7298583984375 Q 4.733642578125 0.799072265625 4.733642578125 0.894287109375 L 4.733642578125 1.261962890625 L 4.565185546875 1.261962890625 L 4.565185546875 0.010986328125 M 5.66748046875 1.27294921875 Q 5.63818359375 1.27294921875 5.6041259765625 1.2681884765625 Q 5.570068359375 1.263427734375 5.5360107421875 1.248046875 Q 5.501953125 1.232666015625 5.4708251953125 1.2044677734375 Q 5.439697265625 1.17626953125 5.4158935546875 1.130126953125 Q 5.39208984375 1.083984375 5.3778076171875 1.0162353515625 Q 5.363525390625 0.948486328125 5.363525390625 0.854736328125 L 5.363525390625 0.41162109375 Q 5.363525390625 0.317138671875 5.378173828125 0.2501220703125 Q 5.392822265625 0.18310546875 5.4169921875 0.1373291015625 Q 5.441162109375 0.091552734375 5.47265625 0.064453125 Q 5.504150390625 0.037353515625 5.537841796875 0.0230712890625 Q 5.571533203125 0.0087890625 5.6048583984375 0.00439453125 Q 5.63818359375 0 5.666748046875 0 Q 5.741455078125 0 5.7916259765625 0.0208740234375 Q 5.841796875 0.041748046875 5.8721923828125 0.0780029296875 Q 5.902587890625 0.1142578125 5.9154052734375 0.16259765625 Q 5.92822265625 0.2109375 5.92822265625 0.26513671875 Q 5.92822265625 0.305419921875 5.9241943359375 0.3394775390625 Q 5.920166015625 0.37353515625 5.912109375 0.41455078125 L 5.75830078125 0.41455078125 L 5.75830078125 0.350830078125 Q 5.75830078125 0.24755859375 5.735595703125 0.1962890625 Q 5.712890625 0.14501953125 5.6689453125 0.14501953125 Q 5.642578125 0.14501953125 5.622802734375 0.1552734375 Q 5.60302734375 0.16552734375 5.58984375 0.1900634765625 Q 5.57666015625 0.214599609375 5.5697021484375 0.2548828125 Q 5.562744140625 0.295166015625 5.562744140625 0.355224609375 L 5.562744140625 0.926513671875 Q 5.562744140625 0.985107421875 5.5682373046875 1.02392578125 Q 5.57373046875 1.062744140625 5.586181640625 1.086181640625 Q 5.5986328125 1.109619140625 5.6187744140625 1.1195068359375 Q 5.638916015625 1.12939453125 5.66748046875 1.12939453125 Q 5.685791015625 1.12939453125 5.70263671875 1.1209716796875 Q 5.719482421875 1.112548828125 5.7322998046875 1.0946044921875 Q 5.7451171875 1.07666015625 5.7528076171875 1.0491943359375 Q 5.760498046875 1.021728515625 5.760498046875 0.984375 L 5.760498046875 0.862060546875 L 5.93408203125 0.862060546875 L 5.93408203125 0.977783203125 Q 5.93408203125 1.128662109375 5.865234375 1.200439453125 Q 5.79638671875 1.272216796875 5.66748046875 1.27294921875 M 6.239501953125 0.84521484375 L 5.987548828125 0.010986328125 L 6.1787109375 0.010986328125 L 6.331787109375 0.609375 L 6.340576171875 0.609375 L 6.4921875 0.010986328125 L 6.6826171875 0.010986328125 L 6.42919921875 0.84521484375 L 6.42919921875 1.261962890625 L 6.239501953125 1.261962890625 L 6.239501953125 0.84521484375" fill="#574848" fill-rule="nonzero"></path></g><g><path d=" M 2.5334472656250004 2.009744318181818 Q 2.545099431818182 2.009744318181818 2.5480957031250004 2.0187331321022723 Q 2.5510919744318183 2.027721946022727 2.5510919744318183 2.0483629261363636 Q 2.5510919744318183 2.06900390625 2.5567515980113638 2.086981534090909 Q 2.5624112215909096 2.104959161931818 2.5723987926136367 2.1172771661931815 Q 2.592706853693182 2.141913174715909 2.6286621093750004 2.141913174715909 Q 2.6646173650568183 2.141913174715909 2.6859241832386367 2.1154461115056815 Q 2.707231001420455 2.0889790482954544 2.707231001420455 2.039374112215909 Q 2.707231001420455 1.973123224431818 2.6509676846590913 1.9215207741477272 Q 2.6349875710227275 1.9068723366477272 2.6181751598011367 1.892556818181818 Q 2.601362748579546 1.878241299715909 2.585382634943182 1.8629270241477272 Q 2.5694025213068183 1.8476127485795453 2.5567515980113638 1.8289692826704544 Q 2.5291193181818183 1.7880202414772726 2.5291193181818183 1.7357519531249999 Q 2.5291193181818183 1.6821519886363636 2.560746626420455 1.6491930042613636 Q 2.5920410156250004 1.6165669389204544 2.639315518465909 1.6165669389204544 Q 2.6799316406250004 1.6165669389204544 2.7058993252840913 1.643866299715909 Q 2.7348632812500004 1.6751606889204544 2.7325328480113638 1.7304252485795453 Q 2.732199928977273 1.7330886008522726 2.7323663884943183 1.7360848721590907 Q 2.7325328480113638 1.739081143465909 2.7317005504261367 1.7474041193181817 Q 2.730868252840909 1.7557270951704544 2.7247092507102275 1.7622190163352272 Q 2.718550248579546 1.7687109374999999 2.7113924893465913 1.7687109374999999 Q 2.7042347301136367 1.7687109374999999 2.699240944602273 1.7622190163352272 Q 2.694247159090909 1.7557270951704544 2.6959117542613638 1.7450736860795453 Q 2.700239701704546 1.720770596590909 2.700239701704546 1.7082861328124999 Q 2.700239701704546 1.6958016690340907 2.6957452947443183 1.6844824218749999 Q 2.6912508877840913 1.673163174715909 2.6829279119318183 1.6645072798295453 Q 2.664950284090909 1.6461967329545453 2.6363192471590913 1.6461967329545453 Q 2.604691938920455 1.6461967329545453 2.5847167968750004 1.6678364701704544 Q 2.5627441406250004 1.6918066406249999 2.5627441406250004 1.7267631392045453 Q 2.5627441406250004 1.7617196377840907 2.5704012784090913 1.7831929154829544 Q 2.578058416193182 1.804666193181818 2.5905428799715913 1.8219779829545453 Q 2.6030273437500004 1.8392897727272726 2.6190074573863638 1.8536052911931817 Q 2.6349875710227275 1.8679208096590907 2.6514670632102275 1.881903409090909 Q 2.6679465553977275 1.8958860085227272 2.6839266690340913 1.9107009055397726 Q 2.699906782670455 1.925515802556818 2.712557705965909 1.9434934303977272 Q 2.740189985795455 1.984109552556818 2.740189985795455 2.0370436789772723 Q 2.740189985795455 2.0989666193181815 2.7082297585227275 2.1359206321022723 Q 2.6766024502840913 2.1725417258522723 2.6236683238636367 2.1725417258522723 Q 2.574396306818182 2.1725417258522723 2.5434348366477275 2.134588955965909 Q 2.5141379616477275 2.0989666193181815 2.5141379616477275 2.05435546875 Q 2.5141379616477275 2.009744318181818 2.5334472656250004 2.009744318181818 M 2.9449351917613638 2.170211292613636 Q 2.8753551136363638 2.170211292613636 2.842562588778409 2.09830078125 Q 2.8097700639204546 2.0263902698863636 2.8097700639204546 1.8858984374999999 Q 2.8097700639204546 1.7750363991477272 2.8473899147727275 1.6997966974431817 Q 2.8660333806818183 1.6631756036931817 2.892666903409091 1.6413694069602272 Q 2.9193004261363638 1.6195632102272726 2.9540904651988638 1.6195632102272726 Q 2.9888805042613638 1.6195632102272726 3.0148481889204546 1.6377072975852272 Q 3.0408158735795454 1.6558513849431815 3.057794744318182 1.6901420454545453 Q 3.091086647727273 1.757391690340909 3.0917524857954546 1.8858984374999999 Q 3.0924183238636367 2.021063565340909 3.053133877840909 2.0963032670454544 Q 3.0145152698863638 2.170211292613636 2.9449351917613638 2.170211292613636 M 2.9895463423295454 1.6586811967329544 Q 2.973899147727273 1.6488600852272726 2.954922762784091 1.6488600852272726 Q 2.935946377840909 1.6488600852272726 2.9206321022727275 1.6586811967329544 Q 2.9053178267045454 1.668502308238636 2.8928333629261367 1.6858140980113636 Q 2.8803488991477275 1.7031258877840907 2.8708607066761367 1.7265966796874999 Q 2.8613725142045454 1.750067471590909 2.8547141335227275 1.7770339133522726 Q 2.841730291193182 1.8322984730113636 2.841730291193182 1.887396573153409 Q 2.841730291193182 1.9424946732954544 2.8458917791193183 1.979781605113636 Q 2.8500532670454546 2.017068536931818 2.8573774857954546 2.044201438210227 Q 2.8647017045454546 2.071334339488636 2.8748557350852275 2.0894784268465907 Q 2.885009765625 2.1076225142045453 2.896661931818182 2.1186088423295453 Q 2.918301669034091 2.138251065340909 2.948264382102273 2.138251065340909 Q 3.0368208451704546 2.138251065340909 3.0557972301136367 1.9754536576704544 Q 3.0601251775568183 1.9381667258522726 3.0601251775568183 1.8995481178977272 Q 3.0601251775568183 1.8609295099431817 3.057794744318182 1.8319655539772726 Q 3.0554643110795454 1.8030015980113636 3.0503040660511367 1.7762016157670453 Q 3.0451438210227275 1.7494016335227272 3.0369873046875 1.7260973011363636 Q 3.028830788352273 1.7027929687499999 3.0170121626420454 1.685647638494318 Q 3.0051935369318183 1.668502308238636 2.9895463423295454 1.6586811967329544 M 3.3634144176136367 2.02505859375 Q 3.3634144176136367 2.014072265625 3.3689075816761367 2.007913263494318 Q 3.3744007457386367 2.001754261363636 3.3815585049715913 2.001754261363636 Q 3.388716264204546 2.001754261363636 3.394209428267046 2.0069145063920453 Q 3.399702592329546 2.0120747514204544 3.3990367542613638 2.0227281605113636 Q 3.395707563920455 2.089977805397727 3.362748579545455 2.130926846590909 Q 3.3311212713068183 2.170211292613636 3.2835138494318183 2.170211292613636 Q 3.193625710227273 2.170211292613636 3.1673251065340913 2.035712002840909 Q 3.1573375355113638 1.9861070667613634 3.1573375355113638 1.9186909623579544 Q 3.1573375355113638 1.8512748579545453 3.1656605113636367 1.798507191051136 Q 3.1739834872159096 1.7457395241477272 3.190962357954546 1.7067879971590907 Q 3.227250532670455 1.6235582386363636 3.2941672585227275 1.6235582386363636 Q 3.346102627840909 1.6235582386363636 3.3710715553977275 1.6645072798295453 Q 3.397372159090909 1.7081196732954544 3.397372159090909 1.8069966264204544 Q 3.397372159090909 1.8179829545454544 3.392378373579546 1.8234761186079544 Q 3.387384588068182 1.8289692826704544 3.380393288352273 1.8289692826704544 Q 3.3650790127840913 1.8289692826704544 3.3650790127840913 1.8096599786931817 Q 3.3650790127840913 1.6864799360795453 3.3257945667613638 1.6628426846590907 Q 3.311811967329546 1.6545197088068182 3.293168501420455 1.6545197088068182 Q 3.2745250355113638 1.6545197088068182 3.2597101384943183 1.6650066583806817 Q 3.244895241477273 1.6754936079545453 3.2334095348011367 1.6939706143465907 Q 3.2219238281250004 1.712447620738636 3.2136008522727275 1.7375830078124999 Q 3.205277876420455 1.7627183948863636 3.1999511718750004 1.7916823508522726 Q 3.1892977627840913 1.8502761008522726 3.1892977627840913 1.9073717151988634 Q 3.1892977627840913 1.9644673295454544 3.1929598721590913 1.9989244495738634 Q 3.1966219815340913 2.0333815696022723 3.2032803622159096 2.0578511186079544 Q 3.2099387428977275 2.082320667613636 3.2190940163352275 2.0978014026988636 Q 3.2282492897727275 2.1132821377840907 3.2392356178977275 2.1222709517045453 Q 3.2578790838068183 2.137918146306818 3.2868430397727275 2.137918146306818 Q 3.319136186079546 2.137918146306818 3.339777166193182 2.111617542613636 Q 3.3640802556818183 2.0813219105113636 3.3634144176136367 2.02505859375 M 3.5350341796875004 1.7255979225852272 Q 3.534867720170455 1.7437420099431817 3.534867720170455 1.8715829190340907 Q 3.534867720170455 1.9994238281249999 3.538862748579546 2.1405814985795453 Q 3.5391956676136367 2.1512349076704544 3.532703746448864 2.15689453125 Q 3.5262118252840913 2.1625541548295453 3.5190540660511367 2.1625541548295453 Q 3.511896306818182 2.1625541548295453 3.506403142755682 2.1575603693181815 Q 3.500909978693182 2.152566583806818 3.501575816761364 2.1352547940340907 Q 3.502241654829546 2.1179430042613636 3.5029074928977275 2.087314453125 Q 3.5035733309659096 2.056685901988636 3.5042391690340913 2.0220623224431815 Q 3.505570845170455 1.9534810014204544 3.505570845170455 1.8940549538352272 Q 3.505570845170455 1.8346289062499999 3.5054043856534096 1.8015034623579544 Q 3.505237926136364 1.768378018465909 3.504572088068182 1.7404128196022726 Q 3.5035733309659096 1.6784898792613636 3.500909978693182 1.6415358664772726 Q 3.4999112215909096 1.6308824573863636 3.5047385475852275 1.6257222123579544 Q 3.509565873579546 1.6205619673295453 3.5172230113636367 1.6205619673295453 Q 3.5248801491477275 1.6205619673295453 3.531538529829546 1.6257222123579544 Q 3.538196910511364 1.6308824573863636 3.5376975319602275 1.6432004616477272 Q 3.5371981534090913 1.6555184659090907 3.536698774857955 1.6675035511363636 Q 3.536199396306819 1.679488636363636 3.535700017755682 1.6934712357954544 Q 3.535200639204546 1.7074538352272726 3.5350341796875004 1.7255979225852272 M 3.758256392045455 1.6228924005681815 Q 3.7662464488636367 1.6228924005681815 3.772904829545455 1.6295507812499999 Q 3.779563210227273 1.6362091619318182 3.7833917791193183 1.6573495205965907 Q 3.7872203480113638 1.6784898792613636 3.7950439453125004 1.7177743252840907 Q 3.8028675426136367 1.757058771306818 3.812522194602273 1.8016699218749999 Q 3.822176846590909 1.8462810724431817 3.8328302556818183 1.893722034801136 Q 3.8434836647727275 1.9411629971590907 3.8541370738636367 1.9857741477272726 Q 3.8797718394886367 2.090310724431818 3.894087357954546 2.138583984375 Q 3.897416548295455 2.1509019886363636 3.892256303267046 2.1582262073863636 Q 3.8870960582386367 2.1655504261363636 3.880770596590909 2.1655504261363636 Q 3.874445134943182 2.1655504261363636 3.869284889914773 2.1618883167613636 Q 3.8641246448863638 2.1582262073863636 3.860129616477273 2.1402485795454544 Q 3.856134588068182 2.1222709517045453 3.8471457741477275 2.0819877485795453 Q 3.838156960227273 2.0417045454545453 3.827836470170455 1.995428799715909 Q 3.8275035511363638 1.9934312855113634 3.827170632102273 1.991766690340909 Q 3.8045321377840913 1.990767933238636 3.7632501775568183 1.990767933238636 Q 3.714643998579546 1.990767933238636 3.689009232954546 1.9920996093749999 Q 3.688676313920455 1.9940971235795453 3.6883433948863638 1.9960946377840907 Q 3.6680353338068183 2.093972833806818 3.658380681818182 2.1475727982954544 Q 3.655051491477273 2.1645516690340907 3.6407359730113638 2.1645516690340907 Q 3.625754616477273 2.1645516690340907 3.6224254261363638 2.1499032315340907 Q 3.6214266690340913 2.145575284090909 3.6244229403409096 2.1362535511363636 Q 3.6274192116477275 2.126931818181818 3.6332452947443183 2.1041268643465907 Q 3.6390713778409096 2.0813219105113636 3.645896218039773 2.051858575994318 Q 3.6527210582386367 2.0223952414772723 3.6603781960227275 1.9874387428977272 Q 3.6680353338068183 1.9524822443181817 3.6760253906250004 1.9155282315340907 Q 3.684015447443182 1.8785742187499999 3.6920055042613638 1.8411208274147726 Q 3.699995561079546 1.8036674360795453 3.707319779829546 1.7687109374999999 Q 3.714643998579546 1.7337544389204544 3.7211359197443183 1.7031258877840907 Q 3.7276278409090913 1.6724973366477272 3.731622869318182 1.6545197088068182 Q 3.737948330965909 1.6228924005681815 3.758256392045455 1.6228924005681815 M 3.695334694602273 1.9611381392045453 Q 3.720636541193182 1.962469815340909 3.763583096590909 1.962469815340909 Q 3.7992054332386367 1.962469815340909 3.820512251420455 1.961471058238636 Q 3.813520951704546 1.9311754261363634 3.8065296519886367 1.899215198863636 Q 3.7955433238636367 1.8496102627840907 3.785555752840909 1.8030015980113636 Q 3.7689098011363638 1.7267631392045453 3.7569247159090913 1.669168146306818 Q 3.7492675781250004 1.7074538352272726 3.7349520596590913 1.7733718039772726 Q 3.7163085937500004 1.8612624289772726 3.7066539417613638 1.907205255681818 Q 3.7009943181818183 1.9348375355113634 3.695334694602273 1.9611381392045453 M 3.988303444602273 1.6215607244318182 Q 4.008611505681818 1.6215607244318182 4.008611505681818 1.6505246803977272 Q 4.008611505681818 1.6898091264204544 4.008112127130682 1.733255060369318 Q 4.007612748579546 1.7767009943181817 4.007279829545455 1.811990411931818 Q 4.006946910511363 1.8472798295454544 4.0066139914772725 1.8942214133522726 Q 4.005948153409091 1.991766690340909 4.005282315340909 2.133590198863636 Q 4.071533203125 2.134921875 4.132457386363637 2.1289293323863636 Q 4.144442471590909 2.12759765625 4.1511008522727275 2.133923117897727 Q 4.157759232954546 2.1402485795454544 4.157759232954546 2.1472398792613636 Q 4.157759232954546 2.1542311789772723 4.151766690340909 2.1593914240056815 Q 4.1457741477272725 2.1645516690340907 4.134121981534091 2.163885830965909 Q 4.0961692116477275 2.1608895596590907 4.0523903586647725 2.1625541548295453 Q 4.008611505681818 2.16421875 3.9996226917613638 2.1655504261363636 Q 3.990633877840909 2.166882102272727 3.986472389914773 2.1660498046875 Q 3.9823109019886367 2.1652175071022723 3.9789817116477275 2.1625541548295453 Q 3.9716574928977275 2.15689453125 3.972323330965909 2.145908203125 Q 3.976318359375 2.068005149147727 3.976318359375 1.942328213778409 Q 3.976318359375 1.8166512784090907 3.9761518998579546 1.7868550248579544 Q 3.975985440340909 1.757058771306818 3.9753196022727275 1.7320898437499999 Q 3.9739879261363638 1.6824849076704544 3.969659978693182 1.642867542613636 Q 3.968661221590909 1.6322141335227272 3.9746537642045454 1.6268874289772726 Q 3.980646306818182 1.6215607244318182 3.988303444602273 1.6215607244318182 M 4.606867009943182 1.6408700284090907 Q 4.604869495738637 1.8066637073863636 4.604869495738637 1.875411487926136 Q 4.604869495738637 1.944159268465909 4.605035955255682 1.9762859552556817 Q 4.6052024147727275 2.0084126420454544 4.605535333806818 2.0373765980113636 Q 4.606201171875 2.0986337002840907 4.6070334694602275 2.121105735085227 Q 4.607865767045455 2.1435777698863636 4.605868252840909 2.1479057173295453 Q 4.603870738636364 2.152233664772727 4.600541548295455 2.1552299360795453 Q 4.5868918678977275 2.167547940340909 4.571577592329546 2.1575603693181815 Q 4.565585049715909 2.1535653409090907 4.562921697443182 2.145575284090909 Q 4.533624822443182 2.0596821732954544 4.492342862215909 1.9589741654829544 Q 4.451060901988637 1.8582661576704544 4.434747869318182 1.8166512784090907 Q 4.405118075284091 1.7410786576704544 4.383145419034091 1.6781569602272726 L 4.387473366477273 2.1425790127840907 Q 4.387473366477273 2.152899502840909 4.382146661931818 2.1578932883522723 Q 4.376819957386364 2.162887073863636 4.3699951171875 2.162887073863636 Q 4.363170276988637 2.162887073863636 4.357344193892046 2.157393909801136 Q 4.351518110795455 2.151900745738636 4.351851029829546 2.140914417613636 Q 4.355180220170455 2.049361683238636 4.355180220170455 1.932174183238636 L 4.355180220170455 1.7347531960227272 Q 4.355180220170455 1.683150745738636 4.354514382102273 1.6458638139204544 Q 4.354514382102273 1.6335458096590907 4.362005060369318 1.6270538884943182 Q 4.369495738636364 1.6205619673295453 4.377818714488637 1.6205619673295453 Q 4.3964621803977275 1.6205619673295453 4.402454723011364 1.6382066761363636 Q 4.408447265625 1.6558513849431815 4.41943359375 1.685647638494318 Q 4.430419921875 1.7154438920454544 4.4440696022727275 1.751898526278409 Q 4.457719282670455 1.7883531605113636 4.4733664772727275 1.8291357421874999 Q 4.489013671875 1.869918323863636 4.504660866477273 1.9103679865056817 Q 4.520308061079546 1.9508176491477272 4.534956498579546 1.9887704190340907 Q 4.549604936079546 2.0267231889204544 4.561590021306818 2.057684659090909 Q 4.573575106534091 2.0886461292613636 4.581898082386364 2.1106187855113636 Q 4.582231001420455 2.111617542613636 4.582563920454546 2.112283380681818 Q 4.579900568181818 2.04703125 4.578235973011364 1.9701269531249999 Q 4.576571377840909 1.8765767045454544 4.575406161221591 1.8299680397727272 Q 4.574240944602273 1.7833593749999999 4.573075727982955 1.7355854936079544 Q 4.571910511363637 1.687811612215909 4.570245916193182 1.6408700284090907 Q 4.570245916193182 1.6302166193181815 4.576071999289773 1.6250563742897726 Q 4.581898082386364 1.6198961292613636 4.588889382102273 1.6198961292613636 Q 4.595880681818182 1.6198961292613636 4.601373845880682 1.6250563742897726 Q 4.606867009943182 1.6302166193181815 4.606867009943182 1.6408700284090907 M 4.747358842329545 1.979781605113636 L 4.7480246803977275 2.097967862215909 Q 4.7480246803977275 2.1139479758522723 4.7480246803977275 2.1252672230113636 Q 4.748357599431818 2.130261008522727 4.748357599431818 2.133923117897727 Q 4.8322531960227275 2.133923117897727 4.8598854758522725 2.131259765625 Q 4.888516512784091 2.1282634943181815 4.893177379261363 2.1295951704545453 Q 4.897838245738637 2.130926846590909 4.901167436079545 2.133923117897727 Q 4.907825816761363 2.1399156605113636 4.907825816761363 2.147073419744318 Q 4.907825816761363 2.1542311789772723 4.901500355113637 2.1593914240056815 Q 4.895174893465909 2.1645516690340907 4.883855646306818 2.163885830965909 Q 4.829256924715909 2.159557883522727 4.785311612215909 2.1623876953125 Q 4.741366299715909 2.1652175071022723 4.736039595170454 2.1660498046875 Q 4.730712890625 2.166882102272727 4.726551402698863 2.1660498046875 Q 4.7223899147727275 2.1652175071022723 4.719060724431818 2.1625541548295453 Q 4.7114035866477275 2.15689453125 4.712069424715909 2.145908203125 Q 4.7170632102272725 2.049694602272727 4.7170632102272725 1.9330064808238634 Q 4.7170632102272725 1.8163183593749999 4.717229669744318 1.7861891867897726 Q 4.717396129261363 1.7560600142045453 4.717396129261363 1.7310910866477272 Q 4.716730291193182 1.6774911221590907 4.7150656960227275 1.6553520063920453 Q 4.7134011008522725 1.6332128906249999 4.715897993607954 1.6288849431818182 Q 4.718394886363637 1.624556995738636 4.722056995738637 1.6225594815340907 Q 4.72705078125 1.6202290482954544 4.734707919034091 1.6215607244318182 Q 4.748690518465909 1.6238911576704544 4.771661931818182 1.6238911576704544 Q 4.8159401633522725 1.6238911576704544 4.832086736505682 1.6220601029829544 Q 4.848233309659091 1.6202290482954544 4.852894176136363 1.6217271839488636 Q 4.857555042613637 1.6232253196022726 4.860551313920454 1.6258886718749999 Q 4.8672096946022725 1.6312153764204544 4.8672096946022725 1.6388725142045453 Q 4.8672096946022725 1.646529651988636 4.861217151988637 1.6515234374999999 Q 4.855224609375 1.6565172230113636 4.844904119318182 1.6560178444602272 Q 4.834583629261363 1.6555184659090907 4.822931463068182 1.6546861683238636 Q 4.811279296875 1.653853870738636 4.797962535511363 1.6531880326704544 Q 4.7699973366477275 1.6521892755681815 4.749356356534091 1.653853870738636 Q 4.749356356534091 1.6828178267045453 4.7490234375 1.7114488636363636 Q 4.748690518465909 1.745406605113636 4.748357599431818 1.7803631036931817 Q 4.747358842329545 1.874246271306818 4.747358842329545 1.9188574218749999 Q 4.788973721590909 1.9188574218749999 4.8086159446022725 1.9168599076704544 Q 4.829922762784091 1.914529474431818 4.835415926846591 1.9188574218749999 Q 4.840909090909091 1.9231853693181817 4.840909090909091 1.9305095880681817 Q 4.840909090909091 1.9488201349431817 4.8066184303977275 1.9481542968749999 Q 4.799627130681818 1.947821377840909 4.7939675071022725 1.947821377840909 L 4.767001065340909 1.947488458806818 L 4.747358842329545 1.947488458806818 L 4.747358842329545 1.979781605113636 M 5.0246803977272725 1.6242240767045453 Q 5.034002130681818 1.6242240767045453 5.14453125 1.6215607244318182 Q 5.159845525568182 1.6215607244318182 5.1655051491477275 1.6332128906249999 Q 5.166836825284091 1.636542080965909 5.166836825284091 1.6408700284090907 Q 5.166836825284091 1.6451979758522726 5.1618430397727275 1.6496923828124999 Q 5.156849254261363 1.6541867897727272 5.143199573863637 1.653853870738636 Q 5.129549893465909 1.6535209517045453 5.116732510653409 1.6528551136363636 Q 5.103915127840909 1.6521892755681815 5.092928799715909 1.6518563565340907 Q 5.073286576704545 1.651190518465909 5.0593039772727275 1.6515234374999999 Q 5.056640625 1.728094815340909 5.056640625 1.8176500355113636 Q 5.056640625 1.9135307173295453 5.056807084517045 1.9489865944602272 Q 5.056973544034091 1.984442471590909 5.0576393821022725 2.016735617897727 Q 5.058638139204545 2.0992995383522723 5.059636896306818 2.1392498224431815 Q 5.059969815340909 2.1505690696022723 5.054476651278409 2.1560622336647723 Q 5.048983487215909 2.1615553977272723 5.042491566051137 2.1615553977272723 Q 5.035999644886363 2.1615553977272723 5.029840642755682 2.1563951526988636 Q 5.023681640625 2.1512349076704544 5.023681640625 2.140914417613636 L 5.023348721590909 2.097302024147727 L 5.026677911931818 1.779364346590909 Q 5.026677911931818 1.690474964488636 5.024347478693182 1.6515234374999999 Q 5.006702769886363 1.651190518465909 4.9823996803977275 1.6528551136363636 Q 4.953768643465909 1.654852627840909 4.940951260653409 1.655684925426136 Q 4.928133877840909 1.6565172230113636 4.922807173295454 1.6515234374999999 Q 4.91748046875 1.646529651988636 4.91748046875 1.6400377308238636 Q 4.91748046875 1.6335458096590907 4.922807173295454 1.6272203480113636 Q 4.928133877840909 1.620894886363636 4.939952503551137 1.6213942649147726 Q 4.951771129261363 1.621893643465909 4.9604270241477275 1.6222265624999999 Q 4.969082919034091 1.6225594815340907 4.975574840198863 1.6228924005681815 Q 4.982066761363637 1.6232253196022726 4.987060546875 1.6235582386363636 Q 4.992054332386363 1.6238911576704544 4.9972145774147725 1.6240576171874999 Q 5.002374822443182 1.6242240767045453 5.009033203125 1.6242240767045453 L 5.0246803977272725 1.6242240767045453 M 5.198297674005682 1.7064550781249999 Q 5.190806995738637 1.6708327414772726 5.186811967329546 1.6521892755681815 Q 5.182816938920454 1.6335458096590907 5.1893088600852275 1.6270538884943182 Q 5.19580078125 1.6205619673295453 5.204456676136363 1.6205619673295453 Q 5.221102627840909 1.6205619673295453 5.225264115767046 1.6485271661931815 Q 5.229425603693182 1.676492365056818 5.235418146306818 1.7099507279829544 Q 5.241410688920454 1.7434090909090907 5.248235529119318 1.7800301846590907 Q 5.255060369318182 1.8166512784090907 5.262384588068182 1.854437588778409 Q 5.269708806818182 1.8922238991477272 5.276866566051137 1.9283456143465907 Q 5.284024325284091 1.9644673295454544 5.291015625 1.9970933948863634 Q 5.298006924715909 2.0297194602272723 5.303999467329546 2.0560200639204544 Q 5.311323686079546 2.0893119673295453 5.315984552556818 2.1069566761363636 Q 5.325306285511363 2.06900390625 5.3412863991477275 2.0070809659090907 Q 5.3615944602272725 1.9288449928977272 5.373080166903409 1.8835680042613634 Q 5.384565873579546 1.8382910156249999 5.3945534446022725 1.7963432173295453 Q 5.415860262784091 1.705789240056818 5.423184481534091 1.6555184659090907 Q 5.426180752840909 1.6305495383522726 5.44482421875 1.6312153764204544 Q 5.458140980113637 1.631881214488636 5.461803089488637 1.6491930042613636 Q 5.478449041193182 1.724432705965909 5.495760830965909 1.8116574928977272 Q 5.513072620738637 1.8988822798295453 5.520230379971591 1.9345046164772726 Q 5.527388139204545 1.9701269531249999 5.533880060369318 2.0019207208806815 Q 5.540371981534091 2.0337144886363636 5.545698686079545 2.0593492542613636 Q 5.552689985795454 2.0923082386363636 5.557683771306818 2.1102858664772723 Q 5.563343394886363 2.086648615056818 5.5703346946022725 2.057351740056818 Q 5.579656427556818 2.016735617897727 5.589976917613637 1.9714586292613634 Q 5.600297407670454 1.9261816406249999 5.610950816761363 1.8789071377840907 Q 5.6216042258522725 1.8316326349431817 5.630925958806818 1.7876873224431817 Q 5.651234019886363 1.6918066406249999 5.6582253196022725 1.6432004616477272 Q 5.6618874289772725 1.6178986150568182 5.678866299715909 1.6192302911931815 Q 5.693514737215909 1.6198961292613636 5.693514737215909 1.6372079190340907 Q 5.693514737215909 1.643866299715909 5.6891867897727275 1.662176846590909 Q 5.684858842329545 1.680487393465909 5.676702325994318 1.7176078657670453 Q 5.668545809659091 1.7547283380681817 5.6598899147727275 1.7938463245738636 Q 5.651234019886363 1.8329643110795453 5.642245205965909 1.872748135653409 Q 5.633256392045454 1.9125319602272726 5.624766956676137 1.9498188920454544 Q 5.616277521306818 1.987105823863636 5.6086203835227275 2.020397727272727 Q 5.600963245738637 2.053689630681818 5.594637784090909 2.079657315340909 Q 5.580655184659091 2.137252308238636 5.576993075284091 2.145575284090909 Q 5.569668856534091 2.163219992897727 5.5573508522727275 2.163219992897727 Q 5.5427024147727275 2.163219992897727 5.537708629261363 2.145575284090909 Q 5.5117409446022725 2.054022549715909 5.4932639382102275 1.9623033558238634 Q 5.474786931818182 1.870584161931818 5.467129794034091 1.8316326349431817 Q 5.45947265625 1.793679865056818 5.4438254616477275 1.708785511363636 Q 5.4201882102272725 1.8163183593749999 5.403209339488637 1.8835680042613634 Q 5.384898792613637 1.9558114346590907 5.3762428977272725 1.991433771306818 Q 5.354603160511363 2.079990234375 5.339954723011363 2.145575284090909 Q 5.338290127840909 2.1538982599431815 5.331631747159091 2.1585591264204544 Q 5.3249733664772725 2.163219992897727 5.317982066761363 2.163219992897727 Q 5.301336115056818 2.163219992897727 5.296342329545454 2.145575284090909 Q 5.265380859375 2.028387784090909 5.235584605823863 1.885232599431818 Q 5.2057883522727275 1.7420774147727272 5.198297674005682 1.7064550781249999 M 5.881281072443182 2.170211292613636 Q 5.811700994318182 2.170211292613636 5.7789084694602275 2.09830078125 Q 5.7461159446022725 2.0263902698863636 5.7461159446022725 1.8858984374999999 Q 5.7461159446022725 1.7750363991477272 5.783735795454545 1.6997966974431817 Q 5.802379261363636 1.6631756036931817 5.829012784090909 1.6413694069602272 Q 5.855646306818182 1.6195632102272726 5.890436345880682 1.6195632102272726 Q 5.925226384943182 1.6195632102272726 5.9511940696022725 1.6377072975852272 Q 5.977161754261363 1.6558513849431815 5.994140625 1.6901420454545453 Q 6.027432528409091 1.757391690340909 6.0280983664772725 1.8858984374999999 Q 6.028764204545454 2.021063565340909 5.989479758522727 2.0963032670454544 Q 5.950861150568182 2.170211292613636 5.881281072443182 2.170211292613636 M 5.925892223011363 1.6586811967329544 Q 5.910245028409091 1.6488600852272726 5.891268643465909 1.6488600852272726 Q 5.8722922585227275 1.6488600852272726 5.856977982954545 1.6586811967329544 Q 5.841663707386363 1.668502308238636 5.829179243607954 1.6858140980113636 Q 5.816694779829545 1.7031258877840907 5.807206587357954 1.7265966796874999 Q 5.797718394886363 1.750067471590909 5.791060014204545 1.7770339133522726 Q 5.778076171875 1.8322984730113636 5.778076171875 1.887396573153409 Q 5.778076171875 1.9424946732954544 5.782237659801136 1.979781605113636 Q 5.7863991477272725 2.017068536931818 5.7937233664772725 2.044201438210227 Q 5.8010475852272725 2.071334339488636 5.811201615767045 2.0894784268465907 Q 5.821355646306818 2.1076225142045453 5.8330078125 2.1186088423295453 Q 5.854647549715909 2.138251065340909 5.884610262784091 2.138251065340909 Q 5.9731667258522725 2.138251065340909 5.992143110795454 1.9754536576704544 Q 5.996471058238636 1.9381667258522726 5.996471058238636 1.8995481178977272 Q 5.996471058238636 1.8609295099431817 5.994140625 1.8319655539772726 Q 5.991810191761363 1.8030015980113636 5.986649946732954 1.7762016157670453 Q 5.981489701704545 1.7494016335227272 5.973333185369318 1.7260973011363636 Q 5.965176669034091 1.7027929687499999 5.953358043323863 1.685647638494318 Q 5.941539417613636 1.668502308238636 5.925892223011363 1.6586811967329544 M 6.149946732954545 2.0080797230113636 Q 6.1526100852272725 2.08365234375 6.154274680397727 2.1392498224431815 Q 6.1546075994318175 2.1505690696022723 6.148615056818182 2.1560622336647723 Q 6.142622514204545 2.1615553977272723 6.135797674005682 2.1615553977272723 Q 6.1289728338068175 2.1615553977272723 6.123812588778408 2.1563951526988636 Q 6.11865234375 2.1512349076704544 6.11865234375 2.140914417613636 L 6.11865234375 1.8905593039772726 Q 6.11865234375 1.760720880681818 6.1123268821022725 1.657515980113636 Q 6.111328125 1.642867542613636 6.120316938920454 1.6372079190340907 Q 6.123979048295454 1.6348774857954544 6.127974076704545 1.6343781072443182 Q 6.131969105113636 1.6338787286931815 6.145618785511363 1.6298837002840907 Q 6.179909446022727 1.6202290482954544 6.213700727982954 1.6202290482954544 Q 6.247492009943182 1.6202290482954544 6.269631125710227 1.6277197265624999 Q 6.2917702414772725 1.6352104048295453 6.307417436079545 1.6505246803977272 Q 6.340709339488636 1.683150745738636 6.340709339488636 1.7467382812499999 Q 6.340709339488636 1.8286363636363636 6.276123046875 1.9048748224431817 Q 6.265802556818182 1.9171928267045453 6.254150390625 1.929177911931818 Q 6.286776455965908 2.0290536221590907 6.330721768465908 2.1329243607954544 Q 6.338711825284091 2.1509019886363636 6.322731711647727 2.159224964488636 Q 6.318736683238636 2.1612224786931815 6.313409978693182 2.1612224786931815 Q 6.301424893465908 2.1612224786931815 6.296431107954545 2.1475727982954544 Q 6.285777698863636 2.116611328125 6.2771218039772725 2.088146750710227 Q 6.268465909090908 2.0596821732954544 6.260142933238636 2.0327157315340907 Q 6.245494495738636 1.984109552556818 6.232510653409091 1.9494859730113634 Q 6.195889559659091 1.9817791193181817 6.149946732954545 2.0080797230113636 M 6.1489479758522725 1.9764524147727272 Q 6.201549183238636 1.9458238636363634 6.247492009943182 1.8932226562499999 Q 6.30908203125 1.8216450639204544 6.30908203125 1.749734552556818 Q 6.30908203125 1.6751606889204544 6.256813742897727 1.6535209517045453 Q 6.228182705965908 1.6415358664772726 6.1839044744318175 1.650191761363636 Q 6.162930575284091 1.6541867897727272 6.149613813920454 1.6608451704545453 Q 6.1452858664772725 1.761053799715909 6.1452858664772725 1.8289692826704544 Q 6.1452858664772725 1.9012127130681817 6.1454523259943175 1.9067058771306817 Q 6.145618785511363 1.9121990411931817 6.145785245028408 1.916693448153409 Q 6.145951704545454 1.921187855113636 6.146284623579545 1.9260151811079544 Q 6.146617542613636 1.9308425071022726 6.1471169211647725 1.9398313210227272 Q 6.147616299715908 1.9488201349431817 6.148282137784091 1.9631356534090907 Q 6.148615056818182 1.9691281960227272 6.1489479758522725 1.9764524147727272 M 6.643665660511363 1.6358762428977272 Q 6.644331498579545 1.6412029474431815 6.636341441761363 1.6600128728693182 Q 6.628351384943182 1.6788227982954544 6.601717862215908 1.7267631392045453 Q 6.577081853693182 1.771041370738636 6.544788707386363 1.8299680397727272 Q 6.5647638494318175 1.8878959517045453 6.589732776988636 1.9491530539772726 Q 6.616366299715908 2.0150710227272723 6.627685546874999 2.043036221590909 Q 6.654651988636363 2.1099529474431815 6.66097745028409 2.125100763494318 Q 6.6673029119318175 2.1402485795454544 6.666637073863636 2.1454088245738636 Q 6.665971235795454 2.1505690696022723 6.663307883522727 2.1545640980113636 Q 6.657648259943182 2.1625541548295453 6.64999112215909 2.1625541548295453 Q 6.6360085227272725 2.1625541548295453 6.6306818181818175 2.148904474431818 Q 6.559770063920454 1.9448251065340907 6.526811079545454 1.8615953480113634 Q 6.487193714488636 1.935836292613636 6.4585626775568175 1.9811132812499999 Q 6.4585626775568175 2.079657315340909 6.459894353693182 2.1405814985795453 Q 6.4602272727272725 2.1512349076704544 6.45406827059659 2.15689453125 Q 6.447909268465908 2.1625541548295453 6.440585049715908 2.1625541548295453 Q 6.433260830965908 2.1625541548295453 6.4274347478693175 2.1575603693181815 Q 6.421608664772727 2.152566583806818 6.422274502840908 2.1340895774147723 Q 6.42294034090909 2.115612571022727 6.423939098011363 2.0809889914772723 Q 6.424937855113636 2.046365411931818 6.425936612215908 2.0070809659090907 Q 6.427934126420454 1.928512073863636 6.427934126420454 1.8667555930397726 Q 6.427934126420454 1.804999112215909 6.427601207386363 1.777200372869318 Q 6.4272682883522725 1.7494016335227272 6.42660245028409 1.7264302201704544 Q 6.424937855113636 1.687478693181818 6.420609907670454 1.6425346235795453 Q 6.419611150568182 1.631881214488636 6.426103071732954 1.6267209694602272 Q 6.432594992897727 1.6215607244318182 6.440751509232954 1.6215607244318182 Q 6.448908025568182 1.6215607244318182 6.455732865767045 1.6267209694602272 Q 6.462557705965908 1.631881214488636 6.4622247869318175 1.6425346235795453 Q 6.4585626775568175 1.728094815340909 6.4585626775568175 1.9335058593749999 Q 6.539794921874999 1.7950115411931817 6.5903986150568175 1.6744948508522726 Q 6.600386186079545 1.6508575994318182 6.6048805930397725 1.6380402166193182 Q 6.609374999999999 1.6252228338068182 6.6142023259943175 1.621893643465909 Q 6.619029651988636 1.6185644531249999 6.624023437499999 1.6185644531249999 Q 6.629017223011363 1.6185644531249999 6.633178710937499 1.6207284268465907 Q 6.637340198863636 1.6228924005681815 6.640170010653408 1.6267209694602272 Q 6.642999822443182 1.6305495383522726 6.643665660511363 1.6358762428977272" fill="#b9625d" fill-rule="nonzero"></path></g><g clip-path="url(#SvgjsClipPath1001)"><g clip-path="url(#SvgjsClipPath1000e822c6bd-9392-4891-9492-99a88afd4184)"><path d=" M 7.160312340321109 1.7753960861567937 C 7.201199661199956 1.7753960861567937 7.2343453837672165 1.7422503635895321 7.2343453837672165 1.7013630427106856 L 7.2343453837672165 1.3950439221480682 C 7.2343453837672165 1.2390711062158075 7.343055504763481 1.105900467664948 7.345720694327543 1.1026726269706975 C 7.4967481029576035 0.908646826707137 7.745943327197204 0.5903639663236283 7.772535996403046 0.5626756080747836 C 7.840972141764628 0.49426907593057934 7.867890556361634 0.4745466731565363 8.029164138204637 0.4745466731565363 L 9.034503254985408 0.4745466731565363 C 9.12464588868539 0.4745466731565363 9.185234531441683 0.5303379746975231 9.185234531441683 0.6133142097919219 C 9.185234531441683 0.7025684469705507 9.185856409006632 1.7014222691454428 9.185856409006632 1.7014222691454428 L 9.333922495898848 1.7014222691454428 C 9.333922495898848 1.7014222691454428 9.333300618333901 0.7026572866226853 9.333300618333901 0.6134030494440581 C 9.333300618333901 0.44721367351623414 9.207651736997166 0.32656942591645555 9.034503254985408 0.32656942591645555 L 8.029104911769878 0.32656942591645555 C 7.832502761594392 0.32656942591645555 7.766465286840465 0.3594104839891496 7.66782365975287 0.45808172429412275 C 7.632909676463686 0.4929957075833076 7.322948130163518 0.8907604434105574 7.230495665508017 1.0097463508371427 C 7.224573022032329 1.0167646833558337 7.086249683657621 1.1844643333699587 7.086249683657621 1.3951327618002038 L 7.086249683657621 1.7014518823628215 C 7.086298717436566 1.7423160695005695 7.11944812704595 1.7754124612617221 7.1603123403210995 1.7753960861567937 Z" fill="#b9625d" transform="matrix(1,0,0,1,0,0)" fill-rule="nonzero"></path></g><g clip-path="url(#SvgjsClipPath1000e822c6bd-9392-4891-9492-99a88afd4184)"><path d=" M 8.217770719687941 0.2893752248891302 C 8.258658040566788 0.2893752248891302 8.291803763134048 0.25622950232186775 8.291803763134048 0.21534218144302208 C 8.291869059550061 0.1490663674092547 8.345579932352441 0.0953554946068523 8.411855746386232 0.09529019819081169 C 8.478141179966537 0.09535543173235739 8.531869029356113 0.1490567880995514 8.531966956073223 0.21534218144302208 C 8.531966956073223 0.25622950232186775 8.565112678640483 0.2893752248891302 8.605999999519332 0.2893752248891302 C 8.646887320398179 0.2893752248891302 8.680033042965439 0.25622950232186775 8.680033042965439 0.21534218144302208 C 8.679837210197988 0.0673227343463762 8.559875233126515 -0.052612749355641975 8.411855746386301 -0.05277588870140373 C 8.263852634757562 -0.05259640179076439 8.143917163152473 0.06733906981432457 8.143737676241832 0.21534218144302208 C 8.143737676241832 0.25622950232186775 8.176883398809094 0.2893752248891302 8.217770719687941 0.2893752248891302 Z" fill="#574848" transform="matrix(1,0,0,1,0,0)" fill-rule="nonzero"></path></g><g clip-path="url(#SvgjsClipPath1000e822c6bd-9392-4891-9492-99a88afd4184)"><path d=" M 9.259889452452738 1.8234879511793856 L 9.140459346765477 1.8234879511793856 C 9.106180334899538 1.6806219818264652 8.978543711015927 1.5798001861074888 8.831623102725692 1.5795342664157699 C 8.68474701528971 1.5798068521741953 8.557145230725721 1.680583748298147 8.522846085120662 1.8233991115272508 L 7.92841997268317 1.8233991115272508 C 7.89409905014427 1.6805852858099355 7.766493006560562 1.5798146904022032 7.619613341860763 1.5795342664157699 C 7.472733677160966 1.5798146904022032 7.345127633577259 1.6805852858099355 7.3108067110383566 1.8233991115272505 L 7.160460406408 1.8233991115272505 C 7.1195730855291535 1.8233991115272505 7.086427362961893 1.856544834094512 7.086427362961893 1.8974321549733586 C 7.086427362961893 1.938319475852205 7.1195730855291535 1.9714651984194667 7.160460406408 1.9714651984194667 L 7.310806711038358 1.9714651984194667 C 7.3451721181226866 2.1142376105361746 7.472763541846149 2.2149599542350185 7.619613341860763 2.2152412038788123 C 7.766440764042981 2.2149806149394777 7.8940292488130455 2.1142972968369795 7.92841997268317 1.971554038071602 L 8.523023764424934 1.971554038071602 C 8.55734217572928 2.114269780954052 8.684839527723492 2.2149854705823344 8.831623102725692 2.2153300435309475 C 8.978480381774299 2.215070274630551 9.106083484038772 2.1143387117382284 9.140429733548098 1.971554038071602 L 9.25985983923536 1.971554038071602 C 9.300747160114208 1.971554038071602 9.333892882681468 1.9384083155043401 9.333892882681468 1.897520994625494 C 9.333892885961554 1.8566452356541414 9.300765208190333 1.823504301493011 9.259889452470892 1.823487951179393 Z M 7.619465275773872 2.0672639566387305 C 7.53187445606413 2.0671474542020087 7.4587186119925954 2.000478966790168 7.450492257412473 1.9132752262708261 C 7.451632563261188 1.9081208136404395 7.452218287942807 1.9028592190428422 7.452239437237804 1.8975802210602508 C 7.452220400876195 1.8922913197269415 7.451634663693828 1.8870196850856347 7.450492257412473 1.881855602632297 C 7.458731914769985 1.7946585018813792 7.531879835555431 1.7279972351298336 7.619465275773874 1.727866872264392 C 7.7132086296414375 1.7279811224758899 7.789169561270481 1.8039553015642331 7.789267464221866 1.8976986739297645 C 7.789039109454345 1.9913447070749128 7.713111536468403 2.067166346927987 7.619465275773876 2.0672639566387314 Z M 8.831652715943072 2.0672639566387305 C 8.73794205341002 2.0671660537662166 8.661994390842413 1.9912316386541418 8.661880140712457 1.897520994625494 C 8.661912719247972 1.8037592690841004 8.737861462581588 1.7277310260191283 8.831623102725668 1.7276003533079864 C 8.925373215372588 1.7276983144715734 9.00134367844858 1.803682026669135 9.001425291173685 1.897432154973359 C 9.001359979526532 1.9911890420557972 8.925379976993307 2.067182295374243 8.83162310272568 2.0672639566387305 Z" fill="#574848" transform="matrix(1,0,0,1,0,0)" fill-rule="nonzero"></path></g><g clip-path="url(#SvgjsClipPath1000e822c6bd-9392-4891-9492-99a88afd4184)"><path d=" M 7.9594250112784 0.5968788741468857 L 7.9594250112784 1.1976718283207435 L 7.395382059871191 1.1976718283207435 C 7.3544947389923445 1.1976718283207435 7.321349016425082 1.2308175508880055 7.321349016425082 1.2717048717668515 C 7.321349016425082 1.312592192645698 7.3544947389923445 1.34573791521296 7.395382059871191 1.34573791521296 L 8.033339601854996 1.34573791521296 C 8.074226922733843 1.34573791521296 8.107372645301105 1.312592192645698 8.107372645301105 1.2717048717668515 L 8.107372645301105 0.5968788741468857 C 8.107372645301105 0.5559915532680401 8.074226922733843 0.5228458307007776 8.033339601854996 0.5228458307007776 C 7.992498547340065 0.522911176471609 7.95942495900175 0.5560377673553387 7.9594250112784 0.5968788741468857 Z" fill="#b9625d" transform="matrix(1,0,0,1,0,0)" fill-rule="nonzero"></path></g><g clip-path="url(#SvgjsClipPath1000e822c6bd-9392-4891-9492-99a88afd4184)"><path d=" M 8.62598892124978 1.2727117211577192 C 8.666876242128627 1.2727117211577192 8.700021964695889 1.239565998590457 8.700021964695889 1.1986786777116105 L 8.700021964695889 1.0497241942980404 L 8.849065287761594 1.0497241942980404 C 8.88995260864044 1.0497241942980404 8.923098331207704 1.0165784717307789 8.923098331207704 0.9756911508519324 C 8.923098331207704 0.934803829973086 8.88995260864044 0.9016581074058243 8.849065287761594 0.9016581074058243 L 8.700021964695889 0.9016581074058243 L 8.700021964695889 0.7526147843401199 C 8.700021964695889 0.7117274634612735 8.666876242128627 0.678581740894011 8.62598892124978 0.678581740894011 C 8.585101600370933 0.678581740894011 8.551955877803673 0.7117274634612735 8.551955877803673 0.7526147843401199 L 8.551955877803673 0.9016581074058251 L 8.402942167955347 0.9016581074058251 C 8.3620548470765 0.9016581074058251 8.32890912450924 0.9348038299730868 8.32890912450924 0.9756911508519333 C 8.32890912450924 1.0165784717307795 8.3620548470765 1.0497241942980413 8.402942167955347 1.0497241942980413 L 8.551955877803673 1.0497241942980413 L 8.551955877803673 1.198678677711611 C 8.551955877803673 1.2395659985904566 8.585101600370933 1.2727117211577184 8.62598892124978 1.2727117211577192 Z" fill="#574848" transform="matrix(1,0,0,1,0,0)" fill-rule="nonzero"></path></g></g></g><defs><clipPath id="SvgjsClipPath1001"><path d=" M 7.086279296875 -0.05277588870140293 h 2.2476135858064685 v 2.268105932232351 h -2.2476135858064685 Z"></path></clipPath><clipPath id="SvgjsClipPath1000e822c6bd-9392-4891-9492-99a88afd4184"><path d=" M 7.086279296875 -0.05277588870140293 L 9.333892882681468 -0.05277588870140293 L 9.333892882681468 2.2153300435309484 L 7.086279296875 2.2153300435309484 Z"></path></clipPath></defs></svg>